<svg xmlns="http://www.w3.org/2000/svg" width="500" zoomAndPan="magnify"
     viewBox="0 0 375 374.999991" height="500" preserveAspectRatio="xMidYMid meet" version="1.0">
    <defs>
        <g/>
        <clipPath id="0f7c505fd8">
            <path d="M 8.511719 117 L 90 117 L 90 146 L 8.511719 146 Z M 8.511719 117 " clip-rule="nonzero"/>
        </clipPath>
    </defs>
    <path fill="#8c52ff"
          d="M 240.433594 34.667969 C 237.308594 38.503906 233.964844 42.226562 231.089844 46.210938 C 227.316406 51.457031 224.191406 57.097656 220.21875 62.207031 C 217.425781 65.796875 213.902344 69.023438 210.277344 71.933594 C 206.605469 74.894531 202.238281 75.191406 198.105469 72.429688 C 194.398438 69.949219 190.398438 68.90625 185.765625 68.824219 C 182.671875 68.757812 179.644531 67.382812 176.519531 66.855469 C 167.320312 65.300781 158.15625 64.789062 148.910156 66.921875 C 145.667969 67.664062 142.078125 67.765625 138.738281 67.402344 C 136.835938 67.203125 134.472656 65.878906 133.445312 64.40625 C 126.863281 54.996094 117.714844 47.238281 112.472656 36.964844 C 111.675781 35.410156 110.203125 34.152344 108.980469 32.679688 C 105.125 33.375 104.648438 36.253906 103.257812 38.519531 C 99.1875 45.121094 94.988281 51.636719 90.800781 58.15625 C 89.941406 59.511719 88.949219 60.785156 88.007812 62.089844 C 83.972656 67.648438 80.082031 73.304688 75.832031 78.730469 C 74.441406 80.5 72.277344 81.792969 70.308594 83.117188 C 68.140625 84.570312 65.839844 86.175781 63.046875 84.074219 C 60.25 81.972656 59.175781 79.261719 60.8125 76.285156 C 63.773438 70.890625 66.039062 64.722656 70.472656 60.570312 C 76.328125 55.078125 79.554688 48.347656 83.773438 42.144531 C 88.371094 35.34375 91.613281 27.769531 95.25 20.441406 C 96.460938 18.007812 97.023438 15.3125 97.882812 12.734375 C 99.785156 6.976562 106.121094 5.273438 111.015625 9.277344 C 111.726562 9.871094 112.386719 10.597656 112.835938 11.375 C 116.9375 18.472656 120.921875 25.632812 125.109375 32.714844 C 126.582031 35.210938 128.300781 37.644531 130.238281 39.859375 C 132.371094 42.308594 135.28125 44.226562 137.132812 46.808594 C 139.367188 49.917969 142.246094 50.3125 145.902344 50.445312 C 158.355469 50.941406 170.8125 51.652344 183.234375 52.546875 C 186.34375 52.761719 189.402344 53.835938 192.429688 54.714844 C 199.90625 56.914062 203.960938 55.722656 207.929688 49.652344 C 214.730469 39.25 221.429688 28.828125 230.921875 20.160156 C 233.273438 18.007812 234.332031 14.734375 236.230469 12.121094 C 240.136719 6.710938 244.785156 6.214844 249.300781 11.179688 C 251.382812 13.476562 252.625 16.601562 253.535156 19.546875 C 257.15625 31.175781 260.367188 42.921875 263.972656 54.546875 C 265.511719 59.496094 267.695312 64.273438 269.445312 69.171875 C 270.042969 70.859375 270.621094 72.679688 270.523438 74.414062 C 270.308594 78.300781 267.03125 80.285156 262.898438 79.410156 C 259.042969 78.601562 256.113281 76.699219 254.941406 73.140625 C 251.863281 63.710938 248.9375 54.25 245.875 44.824219 C 244.800781 41.496094 243.527344 38.238281 242.351562 34.949219 C 241.691406 34.847656 241.0625 34.765625 240.433594 34.667969 Z M 240.433594 34.667969 "
          fill-opacity="1" fill-rule="nonzero"/>
    <path fill="#8c52ff"
          d="M 193.292969 263.84375 C 188.941406 264.160156 184.574219 264.488281 180.207031 264.753906 C 179 264.820312 177.726562 264.835938 176.550781 264.570312 C 165.933594 262.074219 155.347656 259.460938 144.726562 256.996094 C 139.765625 255.839844 134.539062 255.441406 129.804688 253.804688 C 120.460938 250.5625 111.28125 246.839844 102.214844 242.96875 C 98.941406 241.578125 95.980469 239.429688 93.183594 237.261719 C 87.757812 233.0625 82.414062 228.761719 77.355469 224.210938 C 75.320312 222.375 73.898438 219.863281 72.605469 217.464844 C 70.96875 214.402344 71.828125 210.332031 74.03125 208.730469 C 76.214844 207.125 80.199219 207.621094 83.492188 210.003906 C 84.648438 210.828125 85.773438 211.738281 86.699219 212.78125 C 94.425781 221.566406 104.085938 227.902344 115.648438 231.605469 C 125.785156 234.847656 136.09375 237.675781 146.316406 240.753906 C 159.878906 244.855469 174.1875 245.070312 188.113281 247.136719 C 193.640625 247.949219 199.925781 246.675781 205.382812 245.035156 C 218.152344 241.214844 230.707031 236.765625 243.179688 232.199219 C 246.488281 230.992188 249.265625 228.480469 252.179688 226.445312 C 257.4375 222.773438 260.132812 222.886719 264.914062 227.171875 C 269.445312 231.242188 270.488281 236.617188 266.851562 240.4375 C 263.476562 243.996094 259.488281 246.988281 253.996094 247.632812 C 252.113281 247.867188 250.128906 248.261719 248.441406 249.039062 C 242.601562 251.71875 237.042969 254.976562 231.054688 257.3125 C 219.078125 261.957031 206.410156 264.191406 193.292969 263.84375 Z M 193.292969 263.84375 "
          fill-opacity="1" fill-rule="nonzero"/>
    <path fill="#8c52ff"
          d="M 175.90625 204.179688 C 172.546875 205.355469 169.390625 206.464844 166.230469 207.570312 C 161.566406 209.207031 157.097656 209.042969 152.964844 206.265625 C 150.183594 204.410156 148.8125 200.65625 149.6875 197.910156 C 150.632812 194.949219 153.261719 194.667969 156.023438 194.238281 C 158.621094 193.84375 161.484375 193.476562 163.648438 192.238281 C 169.390625 188.960938 169.605469 183.058594 164.742188 178.871094 C 162.457031 176.902344 160.191406 174.738281 158.652344 172.289062 C 156.125 168.285156 156.917969 165.226562 160.457031 161.96875 C 165.289062 157.535156 176.1875 156.492188 181.746094 159.949219 C 186.707031 163.042969 188.460938 168.515625 185.566406 173.59375 C 182.160156 179.550781 181.878906 185.6875 183.78125 191.90625 C 185.335938 196.96875 188.214844 198.109375 193.769531 196.6875 C 199.957031 195.097656 202.519531 196.042969 204.207031 200.574219 C 206.359375 206.332031 205.167969 209.375 199.710938 211.65625 C 193.011719 214.46875 186.773438 213.460938 181.148438 209.308594 C 179.464844 208.066406 178.140625 206.398438 175.90625 204.179688 Z M 175.90625 204.179688 "
          fill-opacity="1" fill-rule="nonzero"/>
    <g clip-path="url(#0f7c505fd8)">
        <path fill="#8c52ff"
              d="M 80.992188 145.0625 C 74.0625 143.707031 67.148438 142.347656 60.21875 141.007812 C 45.875 138.230469 31.535156 135.433594 17.175781 132.671875 C 11.785156 131.648438 9.417969 128.339844 8.90625 123.625 C 8.460938 119.539062 10.3125 117.585938 14.746094 117.867188 C 17.640625 118.050781 20.503906 118.8125 23.378906 119.308594 C 40.699219 122.269531 58.050781 125.113281 75.335938 128.257812 C 80.828125 129.25 86.304688 130.554688 88.75 136.378906 C 91.066406 141.886719 89.578125 144.617188 83.277344 144.878906 C 82.546875 144.914062 81.804688 144.796875 81.074219 144.746094 C 81.042969 144.847656 81.027344 144.960938 80.992188 145.0625 Z M 80.992188 145.0625 "
              fill-opacity="1" fill-rule="nonzero"/>
    </g>
    <path fill="#8c52ff"
          d="M 293.863281 151.84375 C 291.910156 151.84375 289.792969 152.273438 288.039062 151.726562 C 286.152344 151.132812 283.621094 149.875 283.191406 148.453125 C 282.777344 147.128906 284.300781 144.550781 285.789062 143.640625 C 288.585938 141.9375 291.84375 140.5625 295.101562 139.882812 C 308.648438 137.121094 322.296875 134.722656 335.875 132.078125 C 342.558594 130.785156 349.207031 129.316406 355.839844 127.828125 C 359.265625 127.046875 362.042969 127.660156 364.359375 130.226562 C 366.363281 132.457031 366.261719 134.855469 364.921875 137.121094 C 364.179688 138.363281 362.773438 139.570312 361.351562 140.117188 C 358.671875 141.140625 355.792969 141.886719 352.929688 142.398438 C 339.515625 144.78125 326.085938 147.097656 312.636719 149.347656 C 306.433594 150.386719 300.179688 151.265625 293.960938 152.222656 C 293.929688 152.109375 293.894531 151.976562 293.863281 151.84375 Z M 293.863281 151.84375 "
          fill-opacity="1" fill-rule="nonzero"/>
    <path fill="#8c52ff"
          d="M 293.761719 165.472656 C 307.988281 167.277344 322.230469 168.980469 336.421875 170.964844 C 339.746094 171.429688 342.972656 172.71875 346.117188 173.910156 C 349.886719 175.332031 352.730469 182.691406 351.0625 186.117188 C 349.820312 188.679688 346.511719 189.953125 342.90625 188.632812 C 331.410156 184.378906 319.285156 183.570312 307.144531 182.363281 C 301.949219 181.851562 296.9375 179.617188 291.878906 178.09375 C 290.96875 177.832031 290.074219 177.332031 289.363281 176.753906 C 287.128906 174.933594 284.929688 172.949219 286.054688 169.875 C 287.261719 166.566406 290.191406 165.6875 293.761719 165.472656 Z M 293.761719 165.472656 "
          fill-opacity="1" fill-rule="nonzero"/>
    <path fill="#8c52ff"
          d="M 82.101562 159.601562 C 83.753906 160.347656 86.800781 161.257812 89.199219 162.941406 C 91.910156 164.84375 94.277344 167.589844 93.25 171.015625 C 92.257812 174.308594 88.734375 174.621094 85.558594 175.199219 C 71.679688 177.679688 57.835938 180.3125 43.941406 182.726562 C 41.625 183.125 39.042969 183.039062 36.761719 182.511719 C 33.171875 181.667969 30.691406 178.210938 30.660156 174.933594 C 30.625 171.742188 32.3125 169.808594 37.027344 168.765625 C 50.558594 165.789062 64.136719 163.027344 77.703125 160.199219 C 78.660156 160 79.636719 159.933594 82.101562 159.601562 Z M 82.101562 159.601562 "
          fill-opacity="1" fill-rule="nonzero"/>
    <path fill="#8c52ff"
          d="M 238.761719 131.746094 C 238.628906 133.085938 238.613281 134.441406 238.367188 135.75 C 237.042969 142.976562 230.90625 147.0625 223.347656 145.789062 C 213.703125 144.167969 209.089844 138.859375 209.832031 131.25 C 210.363281 125.773438 214.066406 122.367188 217.820312 118.894531 C 218.898438 117.902344 220.832031 117.355469 222.4375 117.191406 C 230.359375 116.378906 239.257812 124.417969 238.761719 131.746094 Z M 238.761719 131.746094 "
          fill-opacity="1" fill-rule="nonzero"/>
    <path fill="#8c52ff"
          d="M 157.03125 123.144531 C 156.734375 131.066406 149.953125 138.066406 142.957031 137.667969 C 134.371094 137.171875 128.019531 131.5 128.335938 124.585938 C 128.699219 116.875 134.636719 111.945312 143.171875 112.292969 C 151.722656 112.65625 157.265625 116.992188 157.03125 123.144531 Z M 157.03125 123.144531 "
          fill-opacity="1" fill-rule="nonzero"/>
    <g fill="#8c52ff" fill-opacity="1">
        <g transform="translate(31.924201, 339.891457)">
            <g>
                <path d="M 65.53125 -29.3125 C 66.082031 -22.769531 64.191406 -16.957031 59.859375 -11.875 C 58.066406 -9.664062 56.3125 -8.113281 54.59375 -7.21875 C 40.90625 0.28125 27.867188 1.929688 15.484375 -2.265625 C 12.929688 -3.160156 10.347656 -4.710938 7.734375 -6.921875 C 5.460938 -8.773438 4.773438 -11.390625 5.671875 -14.765625 C 6.222656 -16.960938 6.535156 -19.265625 6.609375 -21.671875 C 6.671875 -25.941406 6.738281 -30.191406 6.8125 -34.421875 C 6.882812 -38.648438 6.953125 -42.863281 7.015625 -47.0625 C 7.085938 -50.4375 7.140625 -53.820312 7.171875 -57.21875 C 7.203125 -60.625 7.253906 -64.015625 7.328125 -67.390625 L 7.328125 -67.796875 C 7.398438 -68.554688 7.347656 -69.363281 7.171875 -70.21875 C 7.003906 -71.082031 6.300781 -71.894531 5.0625 -72.65625 C 4.375 -73.070312 3.957031 -73.65625 3.8125 -74.40625 C 3.75 -75.300781 4.0625 -76.09375 4.75 -76.78125 L 5.671875 -77.71875 C 6.847656 -78.8125 8.070312 -79.925781 9.34375 -81.0625 C 10.613281 -82.195312 11.9375 -82.9375 13.3125 -83.28125 C 21.289062 -85.34375 29.03125 -86.515625 36.53125 -86.796875 C 36.945312 -86.859375 37.394531 -86.890625 37.875 -86.890625 C 47.019531 -86.890625 53.519531 -82.832031 57.375 -74.71875 C 60.882812 -67.425781 59.820312 -60.820312 54.1875 -54.90625 C 53.90625 -54.625 53.59375 -54.347656 53.25 -54.078125 C 52.90625 -53.804688 52.53125 -53.53125 52.125 -53.25 C 51.914062 -53.113281 51.707031 -52.957031 51.5 -52.78125 C 51.289062 -52.613281 51.082031 -52.460938 50.875 -52.328125 L 49.640625 -51.390625 L 50.875 -50.5625 C 51.289062 -50.21875 51.6875 -49.910156 52.0625 -49.640625 C 52.445312 -49.367188 52.8125 -49.09375 53.15625 -48.8125 C 53.84375 -48.257812 54.476562 -47.757812 55.0625 -47.3125 C 55.644531 -46.863281 56.210938 -46.398438 56.765625 -45.921875 C 61.992188 -41.523438 64.914062 -35.988281 65.53125 -29.3125 Z M 21.984375 -57.28125 L 21.984375 -55.9375 L 23.328125 -56.25 C 24.015625 -56.382812 24.648438 -56.535156 25.234375 -56.703125 C 25.816406 -56.878906 26.421875 -57.035156 27.046875 -57.171875 C 28.421875 -57.453125 29.757812 -57.765625 31.0625 -58.109375 C 32.375 -58.453125 33.644531 -58.863281 34.875 -59.34375 C 36.875 -60.101562 38.320312 -60.859375 39.21875 -61.609375 C 40.113281 -62.367188 40.800781 -63.023438 41.28125 -63.578125 L 41.796875 -64.296875 C 42.210938 -65.054688 42.609375 -65.914062 42.984375 -66.875 C 43.359375 -67.84375 43.375 -68.84375 43.03125 -69.875 C 42.6875 -70.90625 41.894531 -71.726562 40.65625 -72.34375 C 39.351562 -72.96875 37.460938 -73.453125 34.984375 -73.796875 C 33.816406 -73.859375 32.679688 -73.875 31.578125 -73.84375 C 30.472656 -73.8125 29.164062 -73.625 27.65625 -73.28125 C 26.144531 -72.9375 24.21875 -72.347656 21.875 -71.515625 L 21.046875 -71.203125 L 21.046875 -70.390625 C 21.117188 -68.867188 21.207031 -67.609375 21.3125 -66.609375 C 21.414062 -65.617188 21.5 -64.675781 21.5625 -63.78125 C 21.632812 -62.882812 21.703125 -61.953125 21.765625 -60.984375 C 21.835938 -60.023438 21.910156 -58.789062 21.984375 -57.28125 Z M 49.75 -27.046875 C 50.226562 -30.410156 48.953125 -33.503906 45.921875 -36.328125 C 43.992188 -38.179688 41.945312 -39.453125 39.78125 -40.140625 C 37.613281 -40.828125 35.425781 -41.171875 33.21875 -41.171875 C 31.019531 -41.171875 28.820312 -41.070312 26.625 -40.875 L 24.5625 -40.765625 C 23.875 -40.691406 23.320312 -40.242188 22.90625 -39.421875 C 22.5 -38.597656 22.257812 -37.945312 22.1875 -37.46875 C 22.1875 -36.4375 22.1875 -35.382812 22.1875 -34.3125 C 22.1875 -33.25 22.1875 -32.203125 22.1875 -31.171875 L 22.1875 -28.890625 L 22.296875 -27.765625 C 22.296875 -27.484375 22.296875 -27.238281 22.296875 -27.03125 C 22.296875 -26.832031 22.296875 -26.628906 22.296875 -26.421875 C 22.296875 -25.453125 22.296875 -24.503906 22.296875 -23.578125 C 22.296875 -22.648438 22.257812 -21.707031 22.1875 -20.75 C 22.050781 -18.0625 23.359375 -16.582031 26.109375 -16.3125 C 27.003906 -16.238281 27.863281 -16.203125 28.6875 -16.203125 C 33.851562 -16.203125 39.015625 -17.472656 44.171875 -20.015625 C 47.398438 -21.597656 49.257812 -23.941406 49.75 -27.046875 Z M 49.75 -27.046875 "/>
            </g>
        </g>
    </g>
    <g fill="#8c52ff" fill-opacity="1">
        <g transform="translate(96.110089, 339.891457)">
            <g>
                <path d="M 46.34375 -40.96875 C 46.613281 -40.007812 46.660156 -38.890625 46.484375 -37.609375 C 46.316406 -36.335938 45.925781 -35.359375 45.3125 -34.671875 C 44.757812 -33.984375 43.878906 -33.519531 42.671875 -33.28125 C 41.472656 -33.039062 40.359375 -32.957031 39.328125 -33.03125 C 38.285156 -33.09375 37.25 -33.378906 36.21875 -33.890625 C 35.1875 -34.410156 34.191406 -34.914062 33.234375 -35.40625 C 31.859375 -36.09375 30.65625 -36.28125 29.625 -35.96875 C 28.59375 -35.65625 27.867188 -34.847656 27.453125 -33.546875 C 25.734375 -28.796875 24.320312 -23.910156 23.21875 -18.890625 C 22.945312 -17.785156 22.894531 -16.628906 23.0625 -15.421875 C 23.238281 -14.222656 23.257812 -13.039062 23.125 -11.875 C 22.914062 -9.320312 21.96875 -7.238281 20.28125 -5.625 C 18.59375 -4.007812 16.578125 -3.132812 14.234375 -3 C 11.828125 -2.851562 9.726562 -3.484375 7.9375 -4.890625 C 6.15625 -6.304688 4.953125 -8.253906 4.328125 -10.734375 C 4.191406 -11.347656 4.070312 -11.960938 3.96875 -12.578125 C 3.863281 -13.203125 3.8125 -13.859375 3.8125 -14.546875 C 3.882812 -20.671875 3.9375 -26.8125 3.96875 -32.96875 C 4.007812 -39.125 4.0625 -45.265625 4.125 -51.390625 C 4.125 -52.015625 4.15625 -52.6875 4.21875 -53.40625 C 4.289062 -54.125 4.535156 -54.691406 4.953125 -55.109375 C 5.640625 -55.929688 6.410156 -56.804688 7.265625 -57.734375 C 8.128906 -58.671875 9.007812 -59.171875 9.90625 -59.234375 C 10.800781 -59.304688 11.78125 -59.015625 12.84375 -58.359375 C 13.914062 -57.703125 14.828125 -56.960938 15.578125 -56.140625 C 16.203125 -55.453125 16.664062 -54.570312 16.96875 -53.5 C 17.28125 -52.4375 17.644531 -51.359375 18.0625 -50.265625 C 24.664062 -53.835938 31.203125 -53.972656 37.671875 -50.671875 C 39.804688 -49.640625 41.628906 -48.332031 43.140625 -46.75 C 44.648438 -45.164062 45.71875 -43.238281 46.34375 -40.96875 Z M 46.34375 -40.96875 "/>
            </g>
        </g>
    </g>
    <g fill="#8c52ff" fill-opacity="1">
        <g transform="translate(141.307996, 339.891457)">
            <g>
                <path d="M 53.046875 -20.640625 C 53.734375 -17.546875 53.765625 -14.945312 53.140625 -12.84375 C 52.523438 -10.75 51.222656 -9.289062 49.234375 -8.46875 C 47.097656 -7.570312 45 -7.585938 42.9375 -8.515625 C 40.875 -9.441406 38.945312 -11.210938 37.15625 -13.828125 C 37.019531 -14.035156 36.847656 -14.257812 36.640625 -14.5 C 36.429688 -14.738281 36.222656 -15.03125 36.015625 -15.375 C 35.460938 -15.03125 34.960938 -14.664062 34.515625 -14.28125 C 34.066406 -13.90625 33.570312 -13.582031 33.03125 -13.3125 C 31.582031 -12.625 30.132812 -11.882812 28.6875 -11.09375 C 27.238281 -10.300781 25.726562 -9.734375 24.15625 -9.390625 C 20.300781 -8.429688 16.769531 -8.601562 13.5625 -9.90625 C 10.363281 -11.21875 7.867188 -13.351562 6.078125 -16.3125 C 4.296875 -19.269531 3.578125 -22.742188 3.921875 -26.734375 C 4.128906 -29.960938 4.972656 -33.125 6.453125 -36.21875 C 7.929688 -39.320312 9.820312 -42.195312 12.125 -44.84375 C 14.425781 -47.488281 17.019531 -49.707031 19.90625 -51.5 C 22.800781 -53.289062 25.765625 -54.425781 28.796875 -54.90625 C 32.234375 -55.519531 35.34375 -55.15625 38.125 -53.8125 C 40.914062 -52.476562 43.582031 -50.847656 46.125 -48.921875 C 46.957031 -48.296875 47.5625 -47.328125 47.9375 -46.015625 C 48.3125 -44.710938 48.601562 -43.476562 48.8125 -42.3125 C 49.632812 -38.738281 50.351562 -35.125 50.96875 -31.46875 C 51.59375 -27.820312 52.285156 -24.210938 53.046875 -20.640625 Z M 23.21875 -24.359375 C 26.382812 -25.597656 28.789062 -27.898438 30.4375 -31.265625 C 32.09375 -34.640625 32.578125 -38.285156 31.890625 -42.203125 C 28.453125 -40.828125 25.75 -38.882812 23.78125 -36.375 C 21.820312 -33.863281 20.257812 -30.992188 19.09375 -27.765625 C 18.957031 -27.285156 18.890625 -26.628906 18.890625 -25.796875 C 18.890625 -24.972656 19.023438 -24.492188 19.296875 -24.359375 C 19.847656 -24.078125 20.484375 -23.9375 21.203125 -23.9375 C 21.929688 -23.9375 22.601562 -24.078125 23.21875 -24.359375 Z M 23.21875 -24.359375 "/>
            </g>
        </g>
    </g>
    <g fill="#8c52ff" fill-opacity="1">
        <g transform="translate(193.523224, 339.891457)">
            <g>
                <path d="M 50.78125 -50.5625 C 52.363281 -49.394531 53.375 -47.8125 53.8125 -45.8125 C 54.257812 -43.820312 53.898438 -41.832031 52.734375 -39.84375 C 49.773438 -34.882812 46.832031 -29.941406 43.90625 -25.015625 C 40.988281 -20.097656 37.945312 -15.234375 34.78125 -10.421875 C 32.507812 -7.046875 29.6875 -5.269531 26.3125 -5.09375 C 22.945312 -4.925781 19.882812 -6.359375 17.125 -9.390625 C 16.164062 -10.492188 15.289062 -11.679688 14.5 -12.953125 C 13.707031 -14.222656 13.070312 -15.515625 12.59375 -16.828125 C 11.144531 -20.953125 9.765625 -25.113281 8.453125 -29.3125 C 7.148438 -33.507812 5.847656 -37.707031 4.546875 -41.90625 C 3.921875 -44.101562 3.710938 -46.300781 3.921875 -48.5 C 4.054688 -50.632812 4.945312 -52.0625 6.59375 -52.78125 C 8.25 -53.507812 9.90625 -53.21875 11.5625 -51.90625 C 12.59375 -51.082031 13.535156 -50.132812 14.390625 -49.0625 C 15.253906 -48 16.03125 -46.882812 16.71875 -45.71875 C 18.226562 -43.175781 19.722656 -40.5625 21.203125 -37.875 C 22.679688 -35.1875 24.210938 -32.4375 25.796875 -29.625 C 27.242188 -31.613281 28.65625 -33.585938 30.03125 -35.546875 C 31.40625 -37.515625 32.78125 -39.460938 34.15625 -41.390625 C 35.125 -42.691406 36.085938 -44.015625 37.046875 -45.359375 C 38.015625 -46.703125 39.082031 -47.957031 40.25 -49.125 C 41.832031 -50.707031 43.585938 -51.617188 45.515625 -51.859375 C 47.441406 -52.097656 49.195312 -51.664062 50.78125 -50.5625 Z M 50.78125 -50.5625 "/>
            </g>
        </g>
    </g>
    <g fill="#8c52ff" fill-opacity="1">
        <g transform="translate(246.151213, 339.891457)">
            <g>
                <path d="M 36.4375 -48.5 C 39.53125 -48.019531 42.210938 -46.898438 44.484375 -45.140625 C 46.753906 -43.390625 48.4375 -41.207031 49.53125 -38.59375 C 50.632812 -35.976562 50.945312 -33.125 50.46875 -30.03125 C 49.988281 -26.3125 49.007812 -22.851562 47.53125 -19.65625 C 46.050781 -16.457031 43.96875 -13.550781 41.28125 -10.9375 C 36.875 -6.675781 31.539062 -4.578125 25.28125 -4.640625 C 23.144531 -5.117188 20.992188 -5.546875 18.828125 -5.921875 C 16.660156 -6.304688 14.546875 -6.84375 12.484375 -7.53125 C 8.429688 -8.976562 5.472656 -11.285156 3.609375 -14.453125 C 1.753906 -17.617188 1.132812 -21.332031 1.75 -25.59375 C 2.507812 -30.613281 4.210938 -35 6.859375 -38.75 C 9.515625 -42.5 13.007812 -45.679688 17.34375 -48.296875 C 21.050781 -50.492188 25.039062 -51.007812 29.3125 -49.84375 C 30.476562 -49.5 31.660156 -49.222656 32.859375 -49.015625 C 34.066406 -48.816406 35.257812 -48.644531 36.4375 -48.5 Z M 33.4375 -28.59375 C 34.257812 -31.0625 33.640625 -33.019531 31.578125 -34.46875 C 29.648438 -35.84375 28.171875 -36.71875 27.140625 -37.09375 C 26.109375 -37.476562 25.179688 -37.304688 24.359375 -36.578125 C 23.535156 -35.859375 22.46875 -34.535156 21.15625 -32.609375 C 20.738281 -31.992188 20.394531 -31.476562 20.125 -31.0625 C 18.125 -27.550781 17.503906 -25.085938 18.265625 -23.671875 C 19.023438 -22.265625 21.398438 -21.460938 25.390625 -21.265625 C 27.453125 -21.191406 29.050781 -21.6875 30.1875 -22.75 C 31.320312 -23.820312 32.40625 -25.769531 33.4375 -28.59375 Z M 33.4375 -28.59375 "/>
            </g>
        </g>
    </g>
    <g fill="#8c52ff" fill-opacity="1">
        <g transform="translate(294.032191, 339.891457)">
            <g>
                <path d="M 39.328125 -29.921875 C 42.484375 -26.960938 44.335938 -23.816406 44.890625 -20.484375 C 45.441406 -17.148438 44.804688 -14.035156 42.984375 -11.140625 C 41.160156 -8.253906 38.21875 -6.054688 34.15625 -4.546875 C 32.226562 -3.785156 30.195312 -3.179688 28.0625 -2.734375 C 25.9375 -2.285156 23.875 -2.128906 21.875 -2.265625 C 20.019531 -2.410156 18.144531 -2.84375 16.25 -3.5625 C 14.363281 -4.28125 12.59375 -5.15625 10.9375 -6.1875 C 9.007812 -7.425781 7.785156 -9.0625 7.265625 -11.09375 C 6.753906 -13.125 6.878906 -15 7.640625 -16.71875 C 8.390625 -18.375 9.640625 -19.578125 11.390625 -20.328125 C 13.148438 -21.085938 15.203125 -21.328125 17.546875 -21.046875 C 19.191406 -20.847656 20.820312 -20.675781 22.4375 -20.53125 C 24.0625 -20.394531 25.664062 -20.257812 27.25 -20.125 C 27.3125 -20.332031 27.378906 -20.535156 27.453125 -20.734375 C 27.523438 -20.941406 27.59375 -21.1875 27.65625 -21.46875 C 26.414062 -21.875 25.160156 -22.285156 23.890625 -22.703125 C 22.617188 -23.117188 21.398438 -23.601562 20.234375 -24.15625 C 18.160156 -25.1875 16.09375 -26.179688 14.03125 -27.140625 C 11.96875 -28.109375 10.113281 -29.3125 8.46875 -30.75 C 5.78125 -33.019531 4.265625 -35.703125 3.921875 -38.796875 C 3.578125 -41.898438 4.195312 -45 5.78125 -48.09375 C 7.363281 -51.125 9.664062 -53.632812 12.6875 -55.625 C 15.71875 -57.625 19.003906 -58.96875 22.546875 -59.65625 C 26.085938 -60.34375 29.476562 -60.171875 32.71875 -59.140625 C 35.195312 -58.378906 37.222656 -57.191406 38.796875 -55.578125 C 40.378906 -53.960938 41.3125 -51.878906 41.59375 -49.328125 C 41.726562 -48.296875 41.601562 -47.195312 41.21875 -46.03125 C 40.84375 -44.863281 40.3125 -43.863281 39.625 -43.03125 C 38.800781 -42 37.800781 -41.617188 36.625 -41.890625 C 35.457031 -42.171875 34.328125 -42.585938 33.234375 -43.140625 C 30.753906 -44.515625 28.535156 -45.03125 26.578125 -44.6875 C 24.617188 -44.34375 22.707031 -43.070312 20.84375 -40.875 C 21.738281 -40.457031 22.5625 -40.078125 23.3125 -39.734375 C 24.070312 -39.390625 24.796875 -39.007812 25.484375 -38.59375 C 27.828125 -37.21875 30.238281 -35.875 32.71875 -34.5625 C 35.195312 -33.257812 37.398438 -31.710938 39.328125 -29.921875 Z M 39.328125 -29.921875 "/>
            </g>
        </g>
    </g>
</svg>